<svg xmlns="http://www.w3.org/2000/svg" xmlns:xlink="http://www.w3.org/1999/xlink" version="1.1" width="24pt" height="24pt" viewBox="0 0 24 24">
<defs>
<clipPath id="clip_0">
<path transform="matrix(1,0,0,-1,0,24)" d="M12 0C18.62742 0 24 5.372583 24 12 24 18.62742 18.62742 24 12 24 5.372583 24 0 18.62742 0 12 0 5.372583 5.372583 0 12 0Z"/>
</clipPath>
<clipPath id="clip_1">
<path transform="matrix(1,0,0,-1,0,24)" d="M18.8 12.1 17.6 13.3 12.8 8.5V19H11V8.5L6.2 13.3 5 12.1 11.9 5.2 18.8 12.1Z"/>
</clipPath>
</defs>
<g clip-path="url(#clip_0)">
<path transform="matrix(1,0,0,-1,0,24)" d="M-5 29H29V-5H-5Z" fill="#398e3d"/>
</g>
<g clip-path="url(#clip_1)">
<path transform="matrix(1,0,0,-1,0,24)" d="M0 24H23.8V.2H0Z" fill="#ffffff"/>
</g>
</svg>
